<mxfile host="app.diagrams.net" modified="2024-04-24T08:31:35.206Z" agent="Mozilla/5.0 (Windows NT 10.0; Win64; x64) AppleWebKit/537.36 (KHTML, like Gecko) Chrome/123.0.0.0 Safari/537.36" version="24.2.8" etag="Mr4-D8gRxC4DldMkO9u3" type="github">
  <diagram name="第 1 页" id="3kJAdN7FKWzV2aodDbDU">
    <mxGraphModel>
      <root>
        <mxCell id="0" />
        <mxCell id="1" parent="0" />
      </root>
    </mxGraphModel>
  </diagram>
</mxfile>
